<svg xmlns="http://www.w3.org/2000/svg" xmlns:xlink="http://www.w3.org/1999/xlink" version="1.1" viewBox="0 0 96 120" x="0px" y="0px"><path d="M94 88h-92c-1.104 0-2-0.9-2-2v-76c0-1.1 0.896-2 2-2h92c1.1 0 2 0.9 2 2v76c0 1.1-0.9 2-2 2zM4 84h88v-72h-88v72z" fill="#000000"/><path d="M92 28h-88c-1.104 0-2-0.9-2-2s0.896-2 2-2h88c1.1 0 2 0.9 2 2s-0.9 2-2 2z" fill="#000000"/><path d="M32.168 77.836c-0.664 0-1.316-0.328-1.696-0.928l-12.168-19.336c-0.436-0.704-0.404-1.584 0.084-2.252l12.168-16.5c0.656-0.9 1.904-1.084 2.796-0.412 0.888 0.656 1.080 1.908 0.42 2.796l-11.356 15.404 11.44 18.18c0.588 0.932 0.308 2.172-0.628 2.752-0.324 0.204-0.696 0.296-1.060 0.296z" fill="#000000"/><path d="M64 77.836c-0.364 0-0.736-0.092-1.064-0.308-0.936-0.584-1.22-1.82-0.628-2.752l11.44-18.18-11.36-15.408c-0.656-0.892-0.468-2.14 0.42-2.796 0.888-0.66 2.14-0.468 2.796 0.42l12.164 16.5c0.492 0.664 0.524 1.556 0.084 2.252l-12.168 19.336c-0.372 0.608-1.020 0.936-1.684 0.936z" fill="#000000"/><path d="M40 74.172c-0.332 0-0.664-0.084-0.976-0.252-0.964-0.54-1.308-1.756-0.768-2.736l15.832-28.336c0.54-0.968 1.752-1.316 2.728-0.756 0.96 0.54 1.304 1.752 0.764 2.724l-15.832 28.336c-0.368 0.652-1.048 1.020-1.748 1.020z" fill="#000000"/><path d="M12 18c0 1.105-0.895 2-2 2s-2-0.895-2-2c0-1.105 0.895-2 2-2s2 0.895 2 2z" fill="#000000"/><path d="M20 18c0 1.105-0.895 2-2 2s-2-0.895-2-2c0-1.105 0.895-2 2-2s2 0.895 2 2z" fill="#000000"/><path d="M28 18c0 1.105-0.895 2-2 2s-2-0.895-2-2c0-1.105 0.895-2 2-2s2 0.895 2 2z" fill="#000000"/><text x="0" y="111" fill="#000000" font-size="5px" font-weight="bold" font-family="'Helvetica Neue', Helvetica, Arial-Unicode, Arial, Sans-serif">Created by iconsmind.com</text><text x="0" y="116" fill="#000000" font-size="5px" font-weight="bold" font-family="'Helvetica Neue', Helvetica, Arial-Unicode, Arial, Sans-serif">from the Noun Project</text></svg>